<?xml version="1.0" encoding="UTF-8" standalone="no"?>
<!DOCTYPE svg PUBLIC "-//W3C//DTD SVG 1.1//EN"
 "http://www.w3.org/Graphics/SVG/1.1/DTD/svg11.dtd">
<!-- Generated by graphviz version 2.40.1 (20161225.0304)
 -->
<!-- Title: dependencies Pages: 1 -->
<svg width="1166pt" height="284pt"
 viewBox="0.00 0.00 1166.00 284.00" xmlns="http://www.w3.org/2000/svg" xmlns:xlink="http://www.w3.org/1999/xlink">
<g id="graph0" class="graph" transform="scale(1 1) rotate(0) translate(4 280)">
<title>dependencies</title>
<polygon fill="#ffffff" stroke="transparent" points="-4,4 -4,-280 1162,-280 1162,4 -4,4"/>
<text text-anchor="start" x="558.0091" y="-42.4" font-family="sans-serif" font-weight="bold" font-size="14.00" fill="#000000">Legend</text>
<polygon fill="#ffffb3" stroke="transparent" points="345,-10 345,-30 365,-30 365,-10 345,-10"/>
<text text-anchor="start" x="368.629" y="-15.4" font-family="sans-serif" font-size="14.00" fill="#000000"> &#160;Declarations</text>
<polygon fill="#8dd3c7" stroke="transparent" points="458,-10 458,-30 478,-30 478,-10 458,-10"/>
<text text-anchor="start" x="481.7251" y="-15.4" font-family="sans-serif" font-size="14.00" fill="#000000"> &#160;Module</text>
<polygon fill="#80b1d3" stroke="transparent" points="544,-10 544,-30 564,-30 564,-10 544,-10"/>
<text text-anchor="start" x="567.7812" y="-15.4" font-family="sans-serif" font-size="14.00" fill="#000000"> &#160;Bootstrap</text>
<polygon fill="#fdb462" stroke="transparent" points="641,-10 641,-30 661,-30 661,-10 641,-10"/>
<text text-anchor="start" x="664.6732" y="-15.4" font-family="sans-serif" font-size="14.00" fill="#000000"> &#160;Providers</text>
<polygon fill="#fb8072" stroke="transparent" points="737,-10 737,-30 757,-30 757,-10 737,-10"/>
<text text-anchor="start" x="760.7258" y="-15.4" font-family="sans-serif" font-size="14.00" fill="#000000"> &#160;Exports</text>
<g id="clust1" class="cluster">
<title>cluster_AppModule</title>
<polygon fill="none" stroke="#000000" stroke-dasharray="1,5" points="8,-70 8,-268 1150,-268 1150,-70 8,-70"/>
</g>
<g id="clust2" class="cluster">
<title>cluster_AppModule_declarations</title>
<polygon fill="none" stroke="#000000" points="293,-78 293,-130 1142,-130 1142,-78 293,-78"/>
</g>
<g id="clust9" class="cluster">
<title>cluster_AppModule_imports</title>
<polygon fill="none" stroke="#000000" points="16,-78 16,-130 285,-130 285,-78 16,-78"/>
</g>
<g id="clust11" class="cluster">
<title>cluster_AppModule_bootstrap</title>
<polygon fill="none" stroke="#000000" points="495,-208 495,-260 619,-260 619,-208 495,-208"/>
</g>
<!-- AppComponent -->
<g id="node1" class="node">
<title>AppComponent</title>
<polygon fill="#ffffb3" stroke="#000000" points="1133.9399,-122 1028.0601,-122 1028.0601,-86 1133.9399,-86 1133.9399,-122"/>
<text text-anchor="middle" x="1081" y="-99.8" font-family="Times,serif" font-size="14.00" fill="#000000">AppComponent</text>
</g>
<!-- AppModule -->
<g id="node7" class="node">
<title>AppModule</title>
<polygon fill="#8dd3c7" stroke="#000000" points="598.6571,-187 595.6571,-191 574.6571,-191 571.6571,-187 515.3429,-187 515.3429,-151 598.6571,-151 598.6571,-187"/>
<text text-anchor="middle" x="557" y="-164.8" font-family="Times,serif" font-size="14.00" fill="#000000">AppModule</text>
</g>
<!-- AppComponent&#45;&gt;AppModule -->
<g id="edge1" class="edge">
<title>AppComponent&#45;&gt;AppModule</title>
<path fill="none" stroke="#000000" d="M1081,-122.2921C1081,-144.2057 1081,-178 1081,-178 1081,-178 608.9953,-178 608.9953,-178"/>
<polygon fill="#000000" stroke="#000000" points="608.9954,-174.5001 598.9953,-178 608.9953,-181.5001 608.9954,-174.5001"/>
</g>
<!-- UserLoginComponent -->
<g id="node2" class="node">
<title>UserLoginComponent</title>
<polygon fill="#ffffb3" stroke="#000000" points="1010.7021,-122 869.2979,-122 869.2979,-86 1010.7021,-86 1010.7021,-122"/>
<text text-anchor="middle" x="940" y="-99.8" font-family="Times,serif" font-size="14.00" fill="#000000">UserLoginComponent</text>
</g>
<!-- UserLoginComponent&#45;&gt;AppModule -->
<g id="edge2" class="edge">
<title>UserLoginComponent&#45;&gt;AppModule</title>
<path fill="none" stroke="#000000" d="M940,-122.1061C940,-141.3391 940,-169 940,-169 940,-169 608.7168,-169 608.7168,-169"/>
<polygon fill="#000000" stroke="#000000" points="608.7168,-165.5001 598.7168,-169 608.7168,-172.5001 608.7168,-165.5001"/>
</g>
<!-- UserProfileComponent -->
<g id="node3" class="node">
<title>UserProfileComponent</title>
<polygon fill="#ffffb3" stroke="#000000" points="850.8585,-122 705.1415,-122 705.1415,-86 850.8585,-86 850.8585,-122"/>
<text text-anchor="middle" x="778" y="-99.8" font-family="Times,serif" font-size="14.00" fill="#000000">UserProfileComponent</text>
</g>
<!-- UserProfileComponent&#45;&gt;AppModule -->
<g id="edge3" class="edge">
<title>UserProfileComponent&#45;&gt;AppModule</title>
<path fill="none" stroke="#000000" d="M778,-122.027C778,-138.3976 778,-160 778,-160 778,-160 608.8282,-160 608.8282,-160"/>
<polygon fill="#000000" stroke="#000000" points="608.8283,-156.5001 598.8282,-160 608.8282,-163.5001 608.8283,-156.5001"/>
</g>
<!-- HeaderComponent -->
<g id="node4" class="node">
<title>HeaderComponent</title>
<polygon fill="#ffffb3" stroke="#000000" points="686.7437,-122 565.2563,-122 565.2563,-86 686.7437,-86 686.7437,-122"/>
<text text-anchor="middle" x="626" y="-99.8" font-family="Times,serif" font-size="14.00" fill="#000000">HeaderComponent</text>
</g>
<!-- HeaderComponent&#45;&gt;AppModule -->
<g id="edge4" class="edge">
<title>HeaderComponent&#45;&gt;AppModule</title>
<path fill="none" stroke="#000000" d="M581.9783,-122.1061C581.9783,-122.1061 581.9783,-140.991 581.9783,-140.991"/>
<polygon fill="#000000" stroke="#000000" points="578.4783,-140.9909 581.9783,-150.991 585.4783,-140.991 578.4783,-140.9909"/>
</g>
<!-- FooterComponent -->
<g id="node5" class="node">
<title>FooterComponent</title>
<polygon fill="#ffffb3" stroke="#000000" points="546.8809,-122 429.1191,-122 429.1191,-86 546.8809,-86 546.8809,-122"/>
<text text-anchor="middle" x="488" y="-99.8" font-family="Times,serif" font-size="14.00" fill="#000000">FooterComponent</text>
</g>
<!-- FooterComponent&#45;&gt;AppModule -->
<g id="edge5" class="edge">
<title>FooterComponent&#45;&gt;AppModule</title>
<path fill="none" stroke="#000000" d="M531.0561,-122.1061C531.0561,-122.1061 531.0561,-140.991 531.0561,-140.991"/>
<polygon fill="#000000" stroke="#000000" points="527.5562,-140.9909 531.0561,-150.991 534.5562,-140.991 527.5562,-140.9909"/>
</g>
<!-- MainComponent -->
<g id="node6" class="node">
<title>MainComponent</title>
<polygon fill="#ffffb3" stroke="#000000" points="411.3823,-122 300.6177,-122 300.6177,-86 411.3823,-86 411.3823,-122"/>
<text text-anchor="middle" x="356" y="-99.8" font-family="Times,serif" font-size="14.00" fill="#000000">MainComponent</text>
</g>
<!-- MainComponent&#45;&gt;AppModule -->
<g id="edge6" class="edge">
<title>MainComponent&#45;&gt;AppModule</title>
<path fill="none" stroke="#000000" d="M356,-122.027C356,-138.3976 356,-160 356,-160 356,-160 504.8638,-160 504.8638,-160"/>
<polygon fill="#000000" stroke="#000000" points="504.8638,-163.5001 514.8638,-160 504.8638,-156.5001 504.8638,-163.5001"/>
</g>
<!-- AppComponent  -->
<g id="node10" class="node">
<title>AppComponent </title>
<polygon fill="#80b1d3" stroke="#000000" points="611.439,-252 502.561,-252 502.561,-216 611.439,-216 611.439,-252"/>
<text text-anchor="middle" x="557" y="-229.8" font-family="Times,serif" font-size="14.00" fill="#000000">AppComponent </text>
</g>
<!-- AppModule&#45;&gt;AppComponent  -->
<g id="edge9" class="edge">
<title>AppModule&#45;&gt;AppComponent </title>
<path fill="none" stroke="#000000" stroke-dasharray="1,5" d="M557,-187.1061C557,-187.1061 557,-205.991 557,-205.991"/>
<polygon fill="#000000" stroke="#000000" points="553.5001,-205.9909 557,-215.991 560.5001,-205.991 553.5001,-205.9909"/>
</g>
<!-- AppRoutingModule -->
<g id="node8" class="node">
<title>AppRoutingModule</title>
<polygon fill="#8dd3c7" stroke="#000000" points="277.2744,-122 274.2744,-126 253.2744,-126 250.2744,-122 148.7256,-122 148.7256,-86 277.2744,-86 277.2744,-122"/>
<text text-anchor="middle" x="213" y="-99.8" font-family="Times,serif" font-size="14.00" fill="#000000">AppRoutingModule</text>
</g>
<!-- AppRoutingModule&#45;&gt;AppModule -->
<g id="edge7" class="edge">
<title>AppRoutingModule&#45;&gt;AppModule</title>
<path fill="none" stroke="#000000" d="M213,-122.1061C213,-141.3391 213,-169 213,-169 213,-169 505.1628,-169 505.1628,-169"/>
<polygon fill="#000000" stroke="#000000" points="505.1628,-172.5001 515.1628,-169 505.1627,-165.5001 505.1628,-172.5001"/>
</g>
<!-- MaterialModule -->
<g id="node9" class="node">
<title>MaterialModule</title>
<polygon fill="#8dd3c7" stroke="#000000" points="130.4706,-122 127.4706,-126 106.4706,-126 103.4706,-122 23.5294,-122 23.5294,-86 130.4706,-86 130.4706,-122"/>
<text text-anchor="middle" x="77" y="-99.8" font-family="Times,serif" font-size="14.00" fill="#000000">MaterialModule</text>
</g>
<!-- MaterialModule&#45;&gt;AppModule -->
<g id="edge8" class="edge">
<title>MaterialModule&#45;&gt;AppModule</title>
<path fill="none" stroke="#000000" d="M77,-122.2921C77,-144.2057 77,-178 77,-178 77,-178 505.2428,-178 505.2428,-178"/>
<polygon fill="#000000" stroke="#000000" points="505.2429,-181.5001 515.2428,-178 505.2428,-174.5001 505.2429,-181.5001"/>
</g>
</g>
</svg>
